<svg width="24" height="24" viewBox="0 0 24 24" fill="none" xmlns="http://www.w3.org/2000/svg">
<path d="M7.5 14.9235V18.6941C7.5 19.6535 7.91413 20.5661 8.6361 21.1978C9.67399 22.106 11.1646 22.2796 12.3834 21.6344L16.9681 19.2072C16.4748 18.7527 16.1341 18.135 16.032 17.4398L11.4477 19.8668C10.9616 20.1241 10.3671 20.0549 9.95311 19.6927C9.66517 19.4407 9.5 19.0767 9.5 18.6941V14.9235C9.17403 14.9739 8.84006 15 8.5 15C8.15994 15 7.82597 14.9739 7.5 14.9235Z" fill="white" fill-opacity="0.6"/>
<path d="M13 8H4V8.5C4 9.02595 4.09023 9.53083 4.25606 10H12.7439C12.9098 9.53083 13 9.02595 13 8.5V8Z" fill="white" fill-opacity="0.3"/>
<circle cx="19" cy="17" r="3" fill="white"/>
<path d="M7 2H5V6H7V2Z" fill="white" fill-opacity="0.6"/>
<path d="M12 2H10V6H12V2Z" fill="white" fill-opacity="0.6"/>
<path d="M13 5.5C13 5.22386 12.7761 5 12.5 5H12V3H12.5C13.8807 3 15 4.11929 15 5.5V8.5C15 12.0899 12.0899 15 8.5 15C4.91015 15 2 12.0899 2 8.5V5.5C2 4.11929 3.11929 3 4.5 3H5V5H4.5C4.22386 5 4 5.22386 4 5.5L4 8.5C4 10.9853 6.01472 13 8.5 13C10.9853 13 13 10.9853 13 8.5V5.5Z" fill="white"/>
</svg>
