<svg width="48" height="48" viewBox="0 0 48 48" fill="none" xmlns="http://www.w3.org/2000/svg">
<path d="M15 29.8477V37.3889C15 39.3075 15.8283 41.1328 17.2722 42.3963C19.348 44.2126 22.3292 44.5599 24.7669 43.2693L33.9363 38.4149C32.9496 37.5061 32.2683 36.2707 32.064 34.8801L22.8953 39.7342C21.9231 40.2489 20.7341 40.1104 19.9062 39.386C19.3303 38.8821 19 38.1541 19 37.3889V29.8477C18.3481 29.9483 17.6801 30.0006 17 30.0006C16.3199 30.0006 15.6519 29.9483 15 29.8477Z" fill="#285082"/>
<path d="M26 16H8V17C8 18.0519 8.18046 19.0617 8.51212 20H25.4879C25.8195 19.0617 26 18.0519 26 17V16Z" fill="#E4E4E4"/>
<circle cx="38" cy="34" r="6" fill="#E65A1E"/>
<path d="M14 4H10V12H14V4Z" fill="#B2D3DE"/>
<path d="M24 4H20V12H24V4Z" fill="#B2D3DE"/>
<path d="M26 11C26 10.4477 25.5523 10 25 10H24V6H25C27.7614 6 30 8.23858 30 11V17C30 24.1797 24.1797 30 17 30C9.8203 30 4 24.1797 4 17V11C4 8.23858 6.23858 6 9 6H10V10H9C8.44772 10 8 10.4477 8 11L8 17C8 21.9706 12.0294 26 17 26C21.9706 26 26 21.9706 26 17V11Z" fill="#B2D3DE"/>
</svg>
