<svg width="48" height="48" viewBox="0 0 48 48" fill="none" xmlns="http://www.w3.org/2000/svg">
<path d="M14.4692 29.1955C14.9546 29.3965 15.4747 29.5 16 29.5V21.5C15.4747 21.5 14.9546 21.6035 14.4692 21.8045C13.9839 22.0055 13.543 22.3001 13.1716 22.6716C12.8001 23.043 12.5055 23.484 12.3045 23.9693C12.1035 24.4546 12 24.9747 12 25.5C12 26.0253 12.1035 26.5454 12.3045 27.0307C12.5055 27.516 12.8001 27.957 13.1716 28.3284C13.543 28.6999 13.9839 28.9945 14.4692 29.1955Z" fill="#506478" fill-opacity="0.6"/>
<path d="M33.5308 29.1955C33.0454 29.3965 32.5253 29.5 32 29.5V21.5C32.5253 21.5 33.0454 21.6035 33.5308 21.8045C34.0161 22.0055 34.457 22.3001 34.8284 22.6716C35.1999 23.043 35.4945 23.484 35.6955 23.9693C35.8965 24.4546 36 24.9747 36 25.5C36 26.0253 35.8965 26.5454 35.6955 27.0307C35.4945 27.516 35.1999 27.957 34.8284 28.3284C34.457 28.6999 34.0161 28.9945 33.5308 29.1955Z" fill="#506478" fill-opacity="0.6"/>
<circle cx="24" cy="32.5" r="2" fill="#506478" fill-opacity="0.3"/>
<path d="M30 21.5C30 19.9087 29.3679 18.3826 28.2426 17.2574C27.1174 16.1321 25.5913 15.5 24 15.5C22.4087 15.5 20.8826 16.1321 19.7574 17.2574C18.6321 18.3826 18 19.9087 18 21.5V29.5H16V21.5C16 19.3783 16.8429 17.3434 18.3431 15.8431C19.8434 14.3429 21.8783 13.5 24 13.5C26.1217 13.5 28.1566 14.3429 29.6569 15.8431C31.1571 17.3434 32 19.3783 32 21.5V29.5C31.9985 31.7077 30.2079 33.5 28.0044 33.5H25.7324C25.9026 33.2058 26 32.8643 26 32.5C26 32.1357 25.9026 31.7942 25.7324 31.5H28.0044C29.1028 31.5 29.9985 30.6038 30 29.5V21.5Z" fill="#506478"/>
</svg>
