<svg width="48" height="48" viewBox="0 0 48 48" fill="none" xmlns="http://www.w3.org/2000/svg">
<path fill-rule="evenodd" clip-rule="evenodd" d="M32.6602 29C31.3806 31.2164 29.2555 32.9446 26.5881 33.6593C23.9208 34.374 21.2163 33.9399 19 32.6603L14 41.3205C16.2746 42.6337 18.7855 43.4861 21.3895 43.8289C23.9934 44.1717 26.6394 43.9983 29.1764 43.3185C31.7133 42.6388 34.0915 41.466 36.1752 39.8671C38.2589 38.2682 40.0073 36.2746 41.3205 34L32.6602 29Z" fill="#F9C1CB"/>
<path fill-rule="evenodd" clip-rule="evenodd" d="M8.13293 36.1752C9.7318 38.2589 11.7254 40.0073 14 41.3205L19 32.6603C16.7836 31.3807 15.0554 29.2556 14.3406 26.5882C13.6259 23.9209 14.06 21.2163 15.3397 19L6.6795 14C5.36628 16.2746 4.51392 18.7855 4.1711 21.3895C3.82828 23.9934 4.00171 26.6394 4.68148 29.1764C5.36125 31.7133 6.53406 34.0915 8.13293 36.1752Z" fill="#ED0C0C"/>
<path fill-rule="evenodd" clip-rule="evenodd" d="M11.825 8.13293C9.74127 9.7318 7.99291 11.7254 6.67969 14L15.3399 19C16.6195 16.7836 18.7446 15.0555 21.4119 14.3408C24.0793 13.626 26.7838 14.0602 29.0001 15.3398L34.0002 6.67949C31.7256 5.36627 29.2147 4.51392 26.6107 4.1711C24.0067 3.82828 21.3608 4.00171 18.8238 4.68148C16.2869 5.36125 13.9087 6.53406 11.825 8.13293Z" fill="#F9C1CB"/>
<path fill-rule="evenodd" clip-rule="evenodd" d="M39.8671 11.825C38.2682 9.74127 36.2746 7.99291 34 6.67969L29 15.34C31.2163 16.6196 32.9445 18.7447 33.6592 21.412C34.3739 24.0793 33.9398 26.7838 32.6602 29.0002L41.3205 34.0002C42.6337 31.7256 43.4861 29.2147 43.8289 26.6107C44.1717 24.0067 43.9983 21.3607 43.3185 18.8238C42.6388 16.2869 41.466 13.9087 39.8671 11.825Z" fill="#ED0C0C"/>
</svg>
