<svg width="48" height="48" viewBox="0 0 48 48" fill="none" xmlns="http://www.w3.org/2000/svg">
<path fill-rule="evenodd" clip-rule="evenodd" d="M28.3303 26.5C27.6905 27.6082 26.628 28.4723 25.2943 28.8297C23.9606 29.187 22.6084 28.97 21.5002 28.3302L19.0002 32.6603C20.1375 33.3169 21.393 33.743 22.695 33.9145C23.997 34.0859 25.32 33.9992 26.5884 33.6593C27.8569 33.3194 29.046 32.733 30.0879 31.9335C31.1297 31.1341 32.0039 30.1373 32.6605 29L28.3303 26.5Z" fill="#506478" fill-opacity="0.3"/>
<path fill-rule="evenodd" clip-rule="evenodd" d="M16.0665 30.0876C16.8659 31.1295 17.8627 32.0036 19 32.6603L21.5 28.3302C20.3918 27.6903 19.5277 26.6278 19.1703 25.2941C18.813 23.9604 19.03 22.6082 19.6698 21.5L15.3397 19C14.6831 20.1373 14.257 21.3928 14.0856 22.6947C13.9141 23.9967 14.0009 25.3197 14.3407 26.5882C14.6806 27.8567 15.267 29.0458 16.0665 30.0876Z" fill="#506478"/>
<path fill-rule="evenodd" clip-rule="evenodd" d="M17.9126 16.0665C16.8708 16.8659 15.9966 17.8627 15.34 19L19.6701 21.5C20.3099 20.3918 21.3724 19.5277 22.7061 19.1704C24.0398 18.813 25.392 19.0301 26.5002 19.6699L29.0002 15.3397C27.8629 14.6831 26.6075 14.257 25.3055 14.0856C24.0035 13.9141 22.6805 14.0009 21.412 14.3407C20.1436 14.6806 18.9545 15.267 17.9126 16.0665Z" fill="#506478" fill-opacity="0.3"/>
<path fill-rule="evenodd" clip-rule="evenodd" d="M31.9335 17.9125C31.1341 16.8706 30.1373 15.9965 29 15.3398L26.5 19.67C27.6082 20.3098 28.4722 21.3724 28.8296 22.706C29.187 24.0397 28.9699 25.3919 28.3301 26.5001L32.6603 29.0001C33.3169 27.8628 33.7431 26.6073 33.9145 25.3054C34.0859 24.0034 33.9992 22.6804 33.6593 21.4119C33.3194 20.1434 32.733 18.9543 31.9335 17.9125Z" fill="#506478" fill-opacity="0.6"/>
</svg>
