<svg width="24" height="24" viewBox="0 0 24 24" fill="none" xmlns="http://www.w3.org/2000/svg">
<path d="M19 14.5C17.6205 14.5 16.5 13.3795 16.5 12C16.5 10.6205 17.6205 9.5 19 9.5C20.3795 9.5 21.5 10.6205 21.5 12C21.4969 13.3795 20.3795 14.5 19 14.5Z" fill="#506478" fill-opacity="0.3"/>
<path d="M12 14.5C10.6205 14.5 9.5 13.3795 9.5 12C9.5 10.6205 10.6205 9.5 12 9.5C13.3795 9.5 14.5 10.6205 14.5 12C14.4969 13.3795 13.3795 14.5 12 14.5Z" fill="#506478" fill-opacity="0.6"/>
<path d="M5 14.5C3.62047 14.5 2.5 13.3795 2.5 12C2.5 10.6205 3.62047 9.5 5 9.5C6.37953 9.5 7.5 10.6205 7.5 12C7.49688 13.3795 6.37953 14.5 5 14.5Z" fill="#506478"/>
</svg>
