<svg width="48" height="48" viewBox="0 0 48 48" fill="none" xmlns="http://www.w3.org/2000/svg">
<circle cx="24" cy="24" r="24" fill="white"/>
<path d="M31 26.5C29.6205 26.5 28.5 25.3795 28.5 24C28.5 22.6205 29.6205 21.5 31 21.5C32.3795 21.5 33.5 22.6205 33.5 24C33.4969 25.3795 32.3795 26.5 31 26.5Z" fill="#BEDCFB"/>
<path d="M24 26.5C22.6205 26.5 21.5 25.3795 21.5 24C21.5 22.6205 22.6205 21.5 24 21.5C25.3795 21.5 26.5 22.6205 26.5 24C26.4969 25.3795 25.3795 26.5 24 26.5Z" fill="#95BEF0"/>
<path d="M17 26.5C15.6205 26.5 14.5 25.3795 14.5 24C14.5 22.6205 15.6205 21.5 17 21.5C18.3795 21.5 19.5 22.6205 19.5 24C19.4969 25.3795 18.3795 26.5 17 26.5Z" fill="#285082"/>
</svg>
