<svg width="221" height="24" viewBox="0 0 221 24" fill="none" xmlns="http://www.w3.org/2000/svg">
<g clip-path="url(#clip0)">
<path d="M25.8915 12.9134H31.1859V8.89091H33.5428V19.7754H31.1859V15.4148H25.8915V19.7754H23.5346V8.89091H25.8915V12.9134ZM81.2611 19.7416V18.5923C81.2611 18.5923 80.0655 20.0458 77.9478 20.0458C75.181 20.0458 72.3117 18.0515 72.3117 14.3332C72.3117 10.1754 75.3518 8.58668 77.777 8.58668C79.9289 8.58668 81.2269 9.9726 81.2269 9.9726V8.8571H83.5155V19.7416H81.2611ZM74.6345 14.3332C74.6345 15.7529 75.7275 17.5106 78.1185 17.5106C80.2363 17.5106 81.1927 16.2261 81.1927 16.2261V12.3726C80.4413 11.5613 79.3482 11.0881 78.1185 11.0881C76.0691 11.0881 74.6345 12.474 74.6345 14.3332ZM89.3564 12.9134H94.6509V8.89091H97.0077V19.7754H94.6509V15.4148H89.3564V19.7754H86.9995V8.89091H89.3564V12.9134ZM111.661 19.7754H114.701V16.767H111.661V19.7754ZM9.39335 9.16133C9.39335 11.6627 7.61716 13.8599 4.44049 13.8599H2.45935V19.7754H0V4.36133H4.40634C7.20726 4.36133 9.39335 6.32189 9.39335 9.16133ZM2.39104 11.3247H4.71376C5.32859 11.3247 5.84096 11.1219 6.25085 10.7501C6.66074 10.3782 6.86569 9.83739 6.86569 9.19513C6.86569 8.58668 6.66074 8.07964 6.28501 7.674C5.90927 7.26837 5.36275 7.06555 4.74791 7.06555H2.39104V11.3247ZM54.5498 20.0796C51.8855 20.0796 48.8796 18.0853 48.8796 14.3332C48.8796 11.0543 51.3731 8.62048 54.5839 8.62048C56.8383 8.62048 58.3413 9.9726 58.6145 10.4796L57.9655 12.4064C57.9655 12.4064 56.5651 11.1219 54.9255 11.1219C52.3637 11.1219 51.2706 12.8796 51.2706 14.3332C51.2706 16.3275 52.8419 17.5782 54.9597 17.5782C56.4968 17.5782 57.8289 16.6656 58.1363 16.3275L58.8195 18.2543C58.7853 18.2543 57.2824 20.0796 54.5498 20.0796ZM66.3342 20.0796C63.6699 20.0796 60.664 18.0853 60.664 14.3332C60.664 11.0543 63.1575 8.62048 66.3683 8.62048C68.6227 8.62048 70.1257 9.9726 70.3989 10.4796L69.7499 12.4064C69.7499 12.4064 68.3495 11.1219 66.7099 11.1219C64.1481 11.1219 63.055 12.8796 63.055 14.3332C63.055 16.3275 64.6263 17.5782 66.744 17.5782C68.2811 17.5782 69.6133 16.6656 69.9207 16.3275L70.6039 18.2543C70.6039 18.2543 69.0668 20.0796 66.3342 20.0796ZM105.035 20.0796C102.37 20.0796 99.3646 18.0853 99.3646 14.3332C99.3646 11.0543 101.858 8.62048 105.069 8.62048C107.323 8.62048 108.826 9.9726 109.1 10.4796L108.451 12.4064C108.451 12.4064 107.05 11.1219 105.411 11.1219C102.849 11.1219 101.756 12.8796 101.756 14.3332C101.756 16.3275 103.327 17.5782 105.445 17.5782C106.982 17.5782 108.314 16.6656 108.621 16.3275L109.304 18.2543C109.304 18.2543 107.802 20.0796 105.035 20.0796ZM42.0822 17.7472C44.0292 17.7472 45.1906 16.6994 45.498 16.2937L46.1811 18.1191C46.0445 18.3895 44.4733 20.1134 42.0481 20.1134C38.6665 20.1134 36.2413 17.9163 36.2413 14.4008C36.2413 11.7303 38.0516 8.65429 41.7407 8.65429C44.9856 8.65429 47.0009 11.2571 47.0009 14.2994C47.0009 14.6374 46.9668 14.9078 46.9326 15.1444H38.6323C38.7689 16.0233 39.6912 17.7472 42.0822 17.7472ZM41.6382 11.1219C39.5204 11.1219 38.7689 12.6092 38.6665 13.2515H44.6441C44.3708 12.1698 43.3461 11.1219 41.6382 11.1219ZM16.0541 17.7472C18.0011 17.7472 19.1624 16.6994 19.4699 16.2937L20.153 18.1191C20.0164 18.3895 18.4451 20.1134 16.0199 20.1134C12.6383 20.1134 10.2131 17.9163 10.2131 14.4008C10.2131 11.7303 12.0235 8.65429 15.7125 8.65429C18.9575 8.65429 20.9728 11.2571 20.9728 14.2994C20.9728 14.6374 20.9386 14.9078 20.9045 15.1444H12.6383C12.7408 16.0233 13.6972 17.7472 16.0541 17.7472ZM15.61 11.1219C13.4923 11.1219 12.7408 12.6092 12.6383 13.2515H18.6159C18.3427 12.1698 17.3521 11.1219 15.61 11.1219Z" fill="#50287D"/>
<path d="M120.03 15.4141L111.661 0H128.364L120.03 15.4141Z" fill="#CEDC00"/>
<path d="M139.397 13.9784C140.083 13.4389 140.503 12.622 140.503 11.6509C140.503 9.93995 139.273 8.69141 137.466 8.69141C136.22 8.69141 135.098 9.38504 134.647 10.2328L134.958 11.6355C135.566 10.834 136.376 10.2636 137.481 10.2636C138.432 10.2636 139.039 10.9264 139.039 11.7742C139.039 12.622 138.432 13.3619 137.357 13.3619H136.376V14.9341H137.326C138.743 14.9341 139.475 15.7973 139.475 16.7221C139.475 17.8474 138.712 18.5564 137.466 18.5564C136.329 18.5564 135.285 18.0478 134.553 17.015L134.148 18.3406C134.522 19.2192 135.784 20.1287 137.466 20.1287C139.46 20.1287 140.955 18.8339 140.955 16.7838C140.955 15.4428 140.332 14.4871 139.397 13.9784Z" fill="#50287D"/>
<path d="M152.549 8.87638H146.475V9.81663C146.475 13.516 145.462 16.0285 144.076 18.3869H143.188V22.3175H144.59V19.9437H152.69V22.3175H154.091V18.3869H152.549V8.87638ZM145.789 18.3869C146.942 16.4601 147.908 13.2848 147.908 10.4332H151.085V18.3869H145.789Z" fill="#50287D"/>
<path d="M162.055 8.69141C159.064 8.69141 156.479 11.1577 156.479 14.4254C156.479 17.6624 159.049 20.1287 162.086 20.1287C165.03 20.1287 167.631 17.6778 167.631 14.41C167.631 11.1422 165.046 8.69141 162.055 8.69141ZM162.071 10.2636C164.36 10.2636 166.151 11.99 166.151 14.41C166.151 16.8763 164.36 18.5564 162.071 18.5564C159.765 18.5564 157.958 16.8609 157.958 14.4254C157.958 12.0054 159.765 10.2636 162.071 10.2636Z" fill="#50287D"/>
<path d="M170.636 8.87638V19.9437H172.1V15.5969H173.766C175.822 15.5969 177.271 14.2251 177.271 12.2521C177.271 10.2174 175.745 8.87638 173.751 8.87638H170.636ZM174 10.4332C175.044 10.4332 175.791 11.2347 175.791 12.2366C175.791 13.3002 175.013 14.0401 174 14.0401H172.1V10.4332H174Z" fill="#50287D"/>
<path d="M184.917 8.69141C181.927 8.69141 179.341 11.1577 179.341 14.4254C179.341 17.6624 181.911 20.1287 184.948 20.1287C187.892 20.1287 190.493 17.6778 190.493 14.41C190.493 11.1422 187.908 8.69141 184.917 8.69141ZM184.933 10.2636C187.222 10.2636 189.014 11.99 189.014 14.41C189.014 16.8763 187.222 18.5564 184.933 18.5564C182.628 18.5564 180.821 16.8609 180.821 14.4254C180.821 12.0054 182.628 10.2636 184.933 10.2636Z" fill="#50287D"/>
<path d="M193.498 8.87638V19.9437H196.878C198.872 19.9437 200.32 18.7876 200.32 16.7067C200.32 15.3503 199.682 14.4717 198.763 14.0401C199.37 13.5623 199.744 12.8995 199.744 11.9129C199.744 9.93995 198.358 8.87638 196.317 8.87638H193.498ZM197.158 15.0728C198.155 15.0728 198.84 15.8744 198.84 16.7376C198.84 17.6932 198.108 18.3869 197.174 18.3869H194.962V15.0728H197.158ZM196.675 10.4332C197.657 10.4332 198.28 11.0806 198.28 11.99C198.28 12.9303 197.61 13.516 196.675 13.516H194.962V10.4332H196.675Z" fill="#50287D"/>
<path d="M206.599 19.9437C208.593 19.9437 210.119 18.6027 210.119 16.568C210.119 14.595 208.671 13.2231 206.615 13.2231H204.948V8.87638H203.484V19.9437H206.599ZM204.948 18.3869V14.78H206.848C207.861 14.78 208.64 15.5198 208.64 16.5834C208.64 17.5853 207.892 18.3869 206.848 18.3869H204.948Z" fill="#50287D"/>
<path d="M212.968 19.9437H218.934V18.3869H214.432V15.0266H218.466V13.4698H214.432V10.4332H218.934V8.87638H212.968V19.9437Z" fill="#50287D"/>
</g>
<defs>
<clipPath id="clip0">
<rect width="221" height="24" fill="white"/>
</clipPath>
</defs>
</svg>
